HIERARCHY
ROOT Hips
{
    OFFSET   0.000000   0.000000   0.000000
    CHANNELS 6 Xposition Yposition Zposition Zrotation Xrotation Yrotation
    JOINT Chest
    {
        OFFSET   0.000000   8.007230   0.000000
        CHANNELS 3 Zrotation Xrotation Yrotation
        JOINT Chest2
        {
            OFFSET   0.000000  22.077100   0.000000
            CHANNELS 3 Zrotation Xrotation Yrotation
            JOINT Neck
            {
                OFFSET   0.000000  23.254800   0.000000
                CHANNELS 3 Zrotation Xrotation Yrotation
                JOINT Head
                {
                    OFFSET   0.000010  14.370000   1.956600
                    CHANNELS 3 Zrotation Xrotation Yrotation
                    End Site
                    {
                        OFFSET   0.000000  19.566000   0.000000
                    }
                }
            }
            JOINT LeftCollar
            {
                OFFSET   3.911900  19.017000  -0.467062
                CHANNELS 3 Zrotation Xrotation Yrotation
                JOINT LeftShoulder
                {
                    OFFSET  10.383700   0.000000   0.000000
                    CHANNELS 3 Zrotation Xrotation Yrotation
                    JOINT LeftElbow
                    {
                        OFFSET  26.662100   0.001193   0.000835
                        CHANNELS 3 Zrotation Xrotation Yrotation
                        JOINT LeftWrist
                        {
                            OFFSET  28.869000  -0.000058  -0.000075
                            CHANNELS 3 Zrotation Xrotation Yrotation
                            JOINT LeftFinger0
                            {
                                OFFSET   2.044660  -2.323460   3.252850
                                CHANNELS 3 Zrotation Xrotation Yrotation
                                JOINT LeftFinger01
                                {
                                    OFFSET   3.088130   0.000000   0.000000
                                    CHANNELS 3 Zrotation Xrotation Yrotation
                                    JOINT LeftFinger02
                                    {
                                        OFFSET   2.639450   0.000000   0.000000
                                        CHANNELS 3 Zrotation Xrotation Yrotation
                                        End Site
                                        {
                                            OFFSET   2.582190   0.000000   0.000000
                                        }
                                    }
                                }
                            }
                            JOINT LeftFinger1
                            {
                                OFFSET   8.364480   0.000000   3.252850
                                CHANNELS 3 Zrotation Xrotation Yrotation
                                JOINT LeftFinger11
                                {
                                    OFFSET   4.646920   0.000000   0.000000
                                    CHANNELS 3 Zrotation Xrotation Yrotation
                                    JOINT LeftFinger12
                                    {
                                        OFFSET   2.323460   0.000000   0.000000
                                        CHANNELS 3 Zrotation Xrotation Yrotation
                                        End Site
                                        {
                                            OFFSET   2.273050   0.000000   0.000000
                                        }
                                    }
                                }
                            }
                            JOINT LeftFinger2
                            {
                                OFFSET   8.364490   0.000016   1.078090
                                CHANNELS 3 Zrotation Xrotation Yrotation
                                JOINT LeftFinger21
                                {
                                    OFFSET   5.111620   0.000000   0.000000
                                    CHANNELS 3 Zrotation Xrotation Yrotation
                                    JOINT LeftFinger22
                                    {
                                        OFFSET   2.788150   0.000012   0.000000
                                        CHANNELS 3 Zrotation Xrotation Yrotation
                                        End Site
                                        {
                                            OFFSET   2.727660   0.000000   0.000000
                                        }
                                    }
                                }
                            }
                            JOINT LeftFinger3
                            {
                                OFFSET   7.899780   0.000014  -1.078090
                                CHANNELS 3 Zrotation Xrotation Yrotation
                                JOINT LeftFinger31
                                {
                                    OFFSET   4.646930   0.000000   0.000000
                                    CHANNELS 3 Zrotation Xrotation Yrotation
                                    JOINT LeftFinger32
                                    {
                                        OFFSET   2.323470   0.000000   0.000000
                                        CHANNELS 3 Zrotation Xrotation Yrotation
                                        End Site
                                        {
                                            OFFSET   2.273050   0.000000   0.000000
                                        }
                                    }
                                }
                            }
                            JOINT LeftFinger4
                            {
                                OFFSET   7.435090   0.000000  -3.252850
                                CHANNELS 3 Zrotation Xrotation Yrotation
                                JOINT LeftFinger41
                                {
                                    OFFSET   3.717550   0.000000   0.000000
                                    CHANNELS 3 Zrotation Xrotation Yrotation
                                    JOINT LeftFinger42
                                    {
                                        OFFSET   1.858770   0.000000   0.000000
                                        CHANNELS 3 Zrotation Xrotation Yrotation
                                        End Site
                                        {
                                            OFFSET   1.818440   0.000000   0.000000
                                        }
                                    }
                                }
                            }
                        }
                    }
                }
            }
            JOINT RightCollar
            {
                OFFSET  -3.911900  19.017000  -0.467063
                CHANNELS 3 Zrotation Xrotation Yrotation
                JOINT RightShoulder
                {
                    OFFSET -10.383700   0.000023   0.000000
                    CHANNELS 3 Zrotation Xrotation Yrotation
                    JOINT RightElbow
                    {
                        OFFSET -26.662100   0.001246   0.001011
                        CHANNELS 3 Zrotation Xrotation Yrotation
                        JOINT RightWrist
                        {
                            OFFSET -28.869000  -0.000026  -0.000078
                            CHANNELS 3 Zrotation Xrotation Yrotation
                            JOINT RightFinger0
                            {
                                OFFSET  -2.044660  -2.323490   3.252850
                                CHANNELS 3 Zrotation Xrotation Yrotation
                                JOINT RightFinger01
                                {
                                    OFFSET  -3.088130   0.000000   0.000000
                                    CHANNELS 3 Zrotation Xrotation Yrotation
                                    JOINT RightFinger02
                                    {
                                        OFFSET  -2.639460   0.000000   0.000000
                                        CHANNELS 3 Zrotation Xrotation Yrotation
                                        End Site
                                        {
                                            OFFSET  -2.582190   0.000000   0.000000
                                        }
                                    }
                                }
                            }
                            JOINT RightFinger1
                            {
                                OFFSET  -8.364480   0.000000   3.252850
                                CHANNELS 3 Zrotation Xrotation Yrotation
                                JOINT RightFinger11
                                {
                                    OFFSET  -4.646920   0.000000   0.000000
                                    CHANNELS 3 Zrotation Xrotation Yrotation
                                    JOINT RightFinger12
                                    {
                                        OFFSET  -2.323470   0.000000   0.000000
                                        CHANNELS 3 Zrotation Xrotation Yrotation
                                        End Site
                                        {
                                            OFFSET  -2.273050   0.000000   0.000000
                                        }
                                    }
                                }
                            }
                            JOINT RightFinger2
                            {
                                OFFSET  -8.364480   0.000000   1.078090
                                CHANNELS 3 Zrotation Xrotation Yrotation
                                JOINT RightFinger21
                                {
                                    OFFSET  -5.111620   0.000000   0.000000
                                    CHANNELS 3 Zrotation Xrotation Yrotation
                                    JOINT RightFinger22
                                    {
                                        OFFSET  -2.788160   0.000000   0.000000
                                        CHANNELS 3 Zrotation Xrotation Yrotation
                                        End Site
                                        {
                                            OFFSET  -2.727660   0.000000   0.000000
                                        }
                                    }
                                }
                            }
                            JOINT RightFinger3
                            {
                                OFFSET  -7.899780   0.000000  -1.078090
                                CHANNELS 3 Zrotation Xrotation Yrotation
                                JOINT RightFinger31
                                {
                                    OFFSET  -4.646930   0.000000   0.000000
                                    CHANNELS 3 Zrotation Xrotation Yrotation
                                    JOINT RightFinger32
                                    {
                                        OFFSET  -2.323470   0.000000   0.000000
                                        CHANNELS 3 Zrotation Xrotation Yrotation
                                        End Site
                                        {
                                            OFFSET  -2.273050   0.000000   0.000000
                                        }
                                    }
                                }
                            }
                            JOINT RightFinger4
                            {
                                OFFSET  -7.435090   0.000000  -3.252850
                                CHANNELS 3 Zrotation Xrotation Yrotation
                                JOINT RightFinger41
                                {
                                    OFFSET  -3.717550   0.000000   0.000000
                                    CHANNELS 3 Zrotation Xrotation Yrotation
                                    JOINT RightFinger42
                                    {
                                        OFFSET  -1.858760   0.000000   0.000000
                                        CHANNELS 3 Zrotation Xrotation Yrotation
                                        End Site
                                        {
                                            OFFSET  -1.818440   0.000000   0.000000
                                        }
                                    }
                                }
                            }
                        }
                    }
                }
            }
        }
    }
    JOINT LeftHip
    {
        OFFSET   9.783010   0.000000   0.000000
        CHANNELS 3 Zrotation Xrotation Yrotation
        JOINT LeftKnee
        {
            OFFSET   0.000073 -41.789100   0.001749
            CHANNELS 3 Zrotation Xrotation Yrotation
            JOINT LeftAnkle
            {
                OFFSET   0.000111 -41.133200  -0.000179
                CHANNELS 3 Zrotation Xrotation Yrotation
                JOINT LeftToe
                {
                    OFFSET   0.000000  -6.358960  14.674500
                    CHANNELS 3 Zrotation Xrotation Yrotation
                    End Site
                    {
                        OFFSET   0.000000   0.000000   3.913200
                    }
                }
            }
        }
    }
    JOINT RightHip
    {
        OFFSET  -9.783010   0.000000   0.000000
        CHANNELS 3 Zrotation Xrotation Yrotation
        JOINT RightKnee
        {
            OFFSET   0.000424 -41.789200   0.005205
            CHANNELS 3 Zrotation Xrotation Yrotation
            JOINT RightAnkle
            {
                OFFSET   0.000000 -41.133200  -0.000155
                CHANNELS 3 Zrotation Xrotation Yrotation
                JOINT RightToe
                {
                    OFFSET   0.000000  -6.358960  14.674500
                    CHANNELS 3 Zrotation Xrotation Yrotation
                    End Site
                    {
                        OFFSET   0.000000   0.000000   3.913200
                    }
                }
            }
        }
    }
}
MOTION
Frames: 5
Frame Time:   0.016667
 -0.947897  89.476800   1.499650  -6.018940 -17.371900  -7.336970   1.978780   9.462380  -0.205524   4.077780  18.911600  -0.763520   3.322700  -2.393850   0.138962   5.485250  -4.805190   5.848800  -4.056800  -4.315620   0.162954 -73.045100  25.719800  -6.023080  -1.344000  -5.271770 -16.047900  11.386200  -4.130250  -2.291270  39.429500  21.747700 -53.447100 -22.669800   0.000000   0.001540  -6.334880  -0.010529   0.002986 -25.676900   3.867230  -7.991840 -21.229600   0.003976   0.003532 -14.858000   0.004256   0.000345 -27.191700  -1.265560   2.461710 -27.910900   0.006585  -0.004369 -18.588700   0.008056  -0.003969 -26.835000  -1.250440   2.469440 -26.867000  -0.001418  -0.001535 -17.886900   0.003474   0.002467 -29.731600  -1.373470   2.403190 -44.640600  -0.000420  -0.000985 -29.730600   0.000696  -0.000745   6.095770  -2.268710  10.890300  47.190100  -2.657420  48.949400 -38.727000 -42.228100  90.612300 -37.762700  -2.353620  26.167000 -53.983800  38.628500  76.040900 -20.944600  -0.003158  -0.003777 -15.000700  -0.000287  -0.004308   4.259490   0.517076   6.908800   3.510520  -0.002280   0.000809   2.457360   0.001771  -0.001415  89.000000  -0.000136  -0.000000  92.753800   0.000099   0.004575  69.565300   0.002861  -0.002666  81.652900  -4.947210  -0.723666  81.684200  -0.003774  -0.000047  61.263200  -0.000809   0.001693  88.940100  -9.996720  -0.184525 110.000000  -0.004295   0.002143  80.000000   0.000351  -0.001968   3.603740  21.748200   4.453460   1.347260   0.047553   4.579870  -1.409500  -4.843070   2.574790  -0.000000   0.000000   0.000000   6.262840  18.380300  -1.261480  -1.365840   3.530620  -1.568120  -1.676270  -4.971420   2.219890   0.000000   0.000000  -0.000000
 -1.002540  89.476100   1.483440  -6.086700 -17.442600  -7.513080   1.997890   9.496350  -0.239605   4.123520  18.978100  -0.837878   3.287960  -2.466650   0.141701   5.429550  -4.952410   5.980600  -4.065890  -4.316650   0.188859 -73.056600  25.719900  -6.031870  -1.338220  -5.221800 -16.093200  11.381600  -4.136930  -2.298860  39.413100  21.642600 -53.215800 -22.677600   0.000000   0.001558  -6.338790  -0.010598   0.002987 -25.672300   3.866440  -7.989730 -21.225600   0.003960   0.003545 -14.856500   0.004263   0.000382 -27.173800  -1.305270   2.540700 -27.841800   0.006653  -0.004383 -18.542700   0.008117  -0.003987 -26.829800  -1.290160   2.548440 -26.863000  -0.001437  -0.001535 -17.887400   0.003512   0.002476 -29.731900  -1.417380   2.479940 -44.644300  -0.000492  -0.000953 -29.733100   0.000633  -0.000773   6.135560  -2.238380  10.920000  47.146900  -2.578340  48.882300 -38.541500 -42.255500  91.010700 -38.116100  -2.131800  26.585300 -53.864900  38.612200  76.077900 -20.803200  -0.003310  -0.003851 -15.000300  -0.000338  -0.004350   4.222490   0.512503   6.908830   3.479920  -0.002297   0.000788   2.435930   0.001669  -0.001471  89.000000  -0.000149  -0.000000  92.633900   0.000086   0.004560  69.475400   0.002916  -0.002717  81.874200  -4.949910  -0.704233  81.904700  -0.003728   0.000000  61.428600  -0.000830   0.001647  88.768500  -9.996650  -0.214362 110.000000  -0.004302   0.002169  80.000000   0.000367  -0.001990   3.623420  21.874900   4.465200   1.362160   0.002089   4.676270  -1.422740  -4.833930   2.622160  -0.000000   0.000000   0.000000   6.317430  18.412000  -1.186220  -1.382780   3.606630  -1.495070  -1.704690  -4.991190   2.212980   0.000000   0.000000  -0.000000
 -1.057110  89.475400   1.467490  -6.149380 -17.514100  -7.683400   2.015730   9.531170  -0.272144   4.166490  19.046300  -0.908956   3.250460  -2.540220   0.144234   5.369360  -5.101220   6.114510  -4.077790  -4.323410   0.208654 -73.073000  25.709500  -6.034050  -1.331760  -5.162870 -16.138500  11.383100  -4.150820  -2.308980  39.432100  21.710700 -53.343200 -22.660300   0.000000   0.001583  -6.331430  -0.010676   0.003000 -25.676700   3.866030  -7.985050 -21.229000   0.003941   0.003559 -14.859300   0.004270   0.000416 -27.186600  -1.279780   2.490010 -27.891400   0.006723  -0.004393 -18.575700   0.008175  -0.004007 -26.836800  -1.264530   2.497790 -26.866800  -0.001458  -0.001532 -17.891500   0.003548   0.002483 -29.747500  -1.389410   2.430540 -44.664800  -0.000568  -0.000921 -29.746700   0.000570  -0.000801   6.180670  -2.212870  10.950900  47.054500  -2.472600  48.811100 -38.923400   0.000297  90.011000 -38.492400  -1.983520  26.909700 -53.615600  38.575200  76.112800 -20.522000  -0.003455  -0.003917 -15.000100  -0.000390  -0.004395   4.305880   0.515909   6.825280   3.548030  -0.002320   0.000758   2.483600   0.001577  -0.001523  89.000000  -0.000152   0.000000  92.578100   0.000106   0.004538  69.433500   0.002957  -0.002761  82.180700  -4.953380  -0.677507  82.210000  -0.003681   0.000000  61.657600  -0.000807   0.001623  88.597700  -9.996600  -0.243845 110.000000  -0.004294   0.002210  80.000000   0.000373  -0.001998   3.643330  21.969300   4.465290   1.377740   0.025711   4.779520  -1.443940  -4.850780   2.666390   0.000000   0.000000  -0.000000   6.366510  18.446200  -1.116760  -1.396210   3.676950  -1.407380  -1.731920  -5.007020   2.193760   0.000000   0.000000   0.000000
 -1.111380  89.474700   1.451650  -6.208100 -17.585800  -7.843800   2.031860   9.566730  -0.303997   4.205920  19.116100  -0.978415   3.211830  -2.616860   0.146786   5.307380  -5.256330   6.244710  -4.091030  -4.336060   0.224773 -73.091500  25.699300  -6.034620  -1.325880  -5.108040 -16.183000  11.384400  -4.166630  -2.319890  39.457400  21.803200 -53.517600 -22.642900   0.000000   0.001610  -6.324080  -0.010755   0.003020 -25.684000   3.864700  -7.977940 -21.234800   0.003923   0.003572 -14.864400   0.004277   0.000450 -27.203800  -1.252910   2.435860 -27.961200   0.006794  -0.004402 -18.622100   0.008233  -0.004029 -26.847300  -1.237720   2.443590 -26.873700  -0.001478  -0.001530 -17.897900   0.003584   0.002490 -29.765900  -1.360560   2.377390 -44.691200  -0.000646  -0.000888 -29.764300   0.000507  -0.000831   6.228880  -2.200170  10.982300  46.937700  -2.355770  48.738200 -38.212900 -42.354300  91.811700 -38.740800  -1.846430  27.185100 -53.453000  38.526600  76.140100 -20.228200  -0.003600  -0.003980 -14.999600  -0.000442  -0.004439   4.444280   0.522337   6.696900   3.661140  -0.002341   0.000725   2.562780   0.001486  -0.001572  89.000000  -0.000152  -0.000000  92.557400   0.000135   0.004516  69.418000   0.002999  -0.002804  82.559000  -4.957550  -0.644738  82.586900  -0.003633   0.000000  61.940200  -0.000785   0.001601  88.451800  -9.996510  -0.268978 110.000000  -0.004286   0.002252  80.000000   0.000379  -0.002007   3.659190  22.054900   4.461110   1.394030   0.058073   4.884240  -1.468080  -4.873790   2.706220   0.000000   0.000000   0.000000   6.410080  18.484000  -1.050010  -1.403870   3.741660  -1.324030  -1.758770  -5.023240   2.174130   0.000000   0.000000   0.000000
 -1.164070  89.473700   1.435780  -6.255630 -17.659000  -7.990940   2.046080   9.604380  -0.334607   4.242500  19.190000  -1.045120   3.172910  -2.702000   0.149710   5.244950  -5.428730   6.361830  -4.104440  -4.352450   0.235701 -73.107900  25.712000  -6.037050  -1.321370  -5.070500 -16.225700  11.378000  -4.183750  -2.332280  39.461600  21.835200 -53.577400 -22.646100   0.000000   0.001638  -6.326060  -0.010830   0.003040 -25.690700   3.860600  -7.967010 -21.239700   0.003909   0.003583 -14.870100   0.004287   0.000483 -27.211000  -1.251300   2.431820 -27.992300   0.006863  -0.004408 -18.642800   0.008290  -0.004051 -26.855200  -1.236340   2.439460 -26.882500  -0.001494  -0.001530 -17.903200   0.003617   0.002494 -29.782300  -1.359540   2.373020 -44.716600  -0.000721  -0.000852 -29.781200   0.000440  -0.000865   6.276330  -2.200660  11.012700  46.803200  -2.234710  48.664000 -38.057700 -42.455400  92.050100 -38.841300  -1.640130  27.433700 -53.264200  38.419300  76.038600 -20.028500  -0.003756  -0.004044 -14.993200  -0.000495  -0.004479   4.577020   0.529072   6.601200   3.770310  -0.002349   0.000695   2.639210   0.001387  -0.001616  89.000000  -0.000148   0.000000  92.565000   0.000145   0.004497  69.423800   0.003055  -0.002849  83.041200  -4.963040  -0.603543  83.067400  -0.003583   0.000026  62.300600  -0.000789   0.001568  88.402500  -9.996350  -0.277468 110.000000  -0.004300   0.002286  80.000000   0.000399  -0.002034   3.669080  22.151500   4.454140   1.409580   0.067568   4.988620  -1.492060  -4.880390   2.737750   0.000000   0.000000  -0.000000   6.446380  18.529600  -0.993092  -1.403930   3.797860  -1.251640  -1.788520  -5.043420   2.168650   0.000000   0.000000  -0.000000
